<svg viewBox="0 0 62 70" xmlns="http://www.w3.org/2000/svg" xmlns:xlink="http://www.w3.org/1999/xlink"><title>Logo CrazyGames.com</title><defs></defs><defs><path id="ziggyPath" d="M.0048.1308h18.9714v15.7638H.0048z"></path></defs><g fill="none" fill-rule="evenodd"><path d="M15.7344 15.0195C18.9941 12.3113 23.9963 11 31 11C38.0037 11 43.0059 12.3218 46.266 15.0195C50.1173 18.2116 52 23.7677 52 32.0002C52 49.4319 43.6085 53 31 53C18.3915 53 10 49.4319 10 32.0002C10 23.7785 11.8722 18.2116 15.7344 15.0195Z" fill="white"></path><path fill-rule="evenodd" clip-rule="evenodd" d="M44.627 7.13337C44.627 7.13337 52.9646 -2.4781 55.644 0.612441C60.2225 5.90326 58.813 21.8557 58.813 21.8557" fill="#6842FF"></path><path fill-rule="evenodd" clip-rule="evenodd" d="M16.5255 7.13337C16.5255 7.13337 8.18781 -2.4781 5.5085 0.612441C0.929965 5.90326 2.33944 21.8557 2.33944 21.8557" fill="#6842FF"></path><path fill-rule="evenodd" clip-rule="evenodd" d="M25.9261 62.3626C18.976 61.7696 13.5263 59.7776 9.34705 56.3311C3.14925 51.1998 0 42.9987 0 31.9271C0 20.9156 3.13918 12.7341 9.33731 7.59338C14.4257 3.37247 21.3741 1.31256 30.5711 1.31256C39.7684 1.31256 46.7064 3.36273 51.8052 7.59338C58.0033 12.7341 61.1422 20.9254 61.1422 31.9271C61.1422 36.0107 60.7138 39.7038 59.862 42.9958C59.4452 45.0421 58.8574 47.0566 58.0753 48.9979C55.9358 54.3687 52.3367 59.1897 47.7585 62.7702C45.4491 64.5305 42.8997 65.9806 40.2305 67.0908C37.5515 68.201 34.7621 69.0009 31.923 69.4311C29.0839 69.8811 26.2146 70.0413 23.3654 69.9913L21.2359 69.871C20.8761 69.8512 20.5263 69.8214 20.1762 69.7814L19.1169 69.6612C18.1261 69.5775 17.1502 69.4159 16.1752 69.2544C15.753 69.1844 15.3309 69.1145 14.9079 69.051C14.628 69.011 14.438 68.741 14.488 68.4609C14.5078 68.3112 14.6078 68.1809 14.7179 68.101L15.0979 67.9008C16.1893 67.2272 17.2258 66.7044 18.2317 66.1969C18.6446 65.9887 19.0523 65.783 19.4566 65.5706L23.4054 63.6201C23.9635 63.3298 24.5136 63.0594 25.0522 62.7947C25.3471 62.6498 25.6386 62.5065 25.9261 62.3626ZM16.3854 16.1245C19.4144 13.6042 24.0628 12.3838 30.5711 12.3838C37.0794 12.3838 41.7277 13.6139 44.7572 16.1245C48.3361 19.0952 50.0856 24.2658 50.0856 31.9271C50.0856 48.1495 42.2876 51.4701 30.5711 51.4701C18.8545 51.4701 11.0566 48.1495 11.0566 31.9271C11.0566 24.2758 12.7964 19.0952 16.3854 16.1245Z" fill="#6842FF"></path><path fill-rule="evenodd" clip-rule="evenodd" d="M42.7773 60.9916C39.2384 62.0319 35.1899 62.5518 30.561 62.5518C28.9414 62.5518 27.4121 62.4816 25.9425 62.3617C25.1225 62.7721 24.2729 63.172 23.4032 63.6422L20.8538 64.9025C22.1035 64.9824 23.3834 65.0321 24.7328 65.0321C32.1507 65.0321 38.0887 63.702 42.7773 60.9916Z" fill="#3E2899"></path><path d="M19.4248 35.8107C19.4248 38.0537 21.2589 39.8882 23.5005 39.8882C25.7421 39.8882 27.5762 38.0537 27.5762 35.8107V31.0121C27.465 31.0236 27.3522 31.0295 27.238 31.0295C25.4401 31.0295 23.9827 29.5714 23.9827 27.7731C23.9827 26.3125 24.9437 25.0765 26.2677 24.6634C25.5396 23.9875 24.5661 23.5728 23.5005 23.5728C21.2589 23.5728 19.4248 25.4077 19.4248 27.6503V35.8107Z" fill="#6842FF"></path><path d="M32.8452 35.8107C32.8452 38.0537 34.6793 39.8882 36.9209 39.8882C39.1625 39.8882 40.9966 38.0537 40.9966 35.8107V30.7009C40.8384 30.7245 40.6765 30.7367 40.5118 30.7367C38.7136 30.7367 37.2561 29.2786 37.2561 27.4803C37.2561 26.0726 38.1489 24.8735 39.399 24.4187C38.7111 23.8888 37.8511 23.5728 36.9209 23.5728C34.6793 23.5728 32.8452 25.4077 32.8452 27.6503V35.8107Z" fill="#6842FF"></path></g></svg>
