<svg xmlns="http://www.w3.org/2000/svg" viewBox="0 0 512 512"><path d="M171 301.061c0-46.869 38.131-85 85-85s85 38.131 85 85c0 11.046-8.954 20-20 20s-20-8.954-20-20c0-24.813-20.187-45-45-45s-45 20.187-45 45c0 11.046-8.954 20-20 20s-20-8.954-20-20zm184-135c0 11.046 8.954 20 20 20s20-8.954 20-20c0-27.57-22.43-50-50-50s-50 22.43-50 50c0 11.046 8.954 20 20 20s20-8.954 20-20c0-5.514 4.486-10 10-10s10 4.486 10 10zm-157 20c11.046 0 20-8.954 20-20 0-27.57-22.43-50-50-50s-50 22.43-50 50c0 11.046 8.954 20 20 20s20-8.954 20-20c0-5.514 4.486-10 10-10s10 4.486 10 10c0 11.046 8.954 20 20 20zm294 50c11.046 0 20-8.954 20-20v-100c0-44.112-35.888-80-80-80H80c-44.112 0-80 35.888-80 80v200c0 44.112 35.888 80 80 80h156v39.878h-70c-11.046 0-20 8.954-20 20s8.954 20 20 20h180c11.046 0 20-8.954 20-20s-8.954-20-20-20h-70v-39.878h156c44.112 0 80-35.888 80-80 0-11.046-8.954-20-20-20s-20 8.954-20 20c0 22.056-17.944 40-40 40H80c-22.056 0-40-17.944-40-40v-200c0-22.056 17.944-40 40-40h352c22.056 0 40 17.944 40 40v100c0 11.046 8.954 20 20 20z"/></svg>