<?xml version="1.0" encoding="iso-8859-1"?><svg xmlns="http://www.w3.org/2000/svg" viewBox="0 0 512.019 512.019" fill="#fff"><path d="M255.994 41.372c5.88 4.412 11.025 4.89 26.402 5.76 45.056 2.586 73.626 12.211 105.404 35.541 38.903 28.459 63.309 68.156 72.559 117.99 2.381 12.902 3.558 23.851 4.36 40.354.486 11.068.87 15.36 3.388 20.207 3.55 6.613 10.428 11.008 18.406 11.75.785.068 1.57.102 2.347.102 7.1 0 13.688-3.004 17.894-8.235 5.589-6.81 5.581-13.158 5.035-26.829-1.604-42.342-10.863-80.384-27.52-113.067-11.878-23.253-23.219-38.485-43.358-58.231-21.478-20.881-38.033-32.563-63.309-44.638C350.825 9.295 331.881 5.25 304.139 1.863c-5.598-.64-16.137-1.476-23.45-1.715-13.935-.461-19.379-.085-25.813 5.632-4.932 4.343-7.62 10.94-7.398 18.116.221 7.125 3.31 13.465 8.516 17.476z"/><path d="M396.436 224.422c0 11.989.99 23.245 12.808 29.065 3.243 1.681 7.467 2.526 11.588 2.526 3.661 0 7.228-.674 9.95-2.039 4.779-2.458 9.6-7.646 11.486-12.339 2.398-6.05 1.306-27.742.623-33.86-3.2-27.332-12.698-53.137-27.46-74.615-26.743-38.852-66.816-62.345-119.083-69.828-17.724-2.611-30.891-3.533-38.639 8.294-6.084 8.986-5.308 20.446 1.877 28.476 5.726 6.494 13.926 7.962 21.18 8.542 20.77 1.638 44.032 8.439 59.281 17.323l.026.008c17.741 10.274 32.427 25.208 42.487 43.196 8.816 15.733 13.876 35.872 13.876 55.251z"/><path d="M350.977 151.133c-11.674-10.692-25.353-17.391-43.017-21.077-4.045-.853-10.906-1.596-15.172-1.835-7.356-.452-10.385-.375-15.616 2.167-6.323 3.174-10.752 9.062-12.169 16.137-1.408 7.031.393 14.106 5.001 19.482 5.325 6.084 10.778 7.603 21.777 8.909 18.381 2.202 28.732 8.388 34.586 20.659 2.961 6.263 4.642 13.124 5.615 22.989 1.007 9.242 2.816 15.172 9.395 20.036 4.139 3.123 9.378 4.668 14.566 4.668 5.675 0 11.298-1.852 15.403-5.513l.051-.034c8.482-7.671 8.841-17.186 6.545-32.034-3.558-23.783-11.861-40.611-26.965-54.554z"/><path d="M511.965 412.822c-.418-9.293-3.61-17.604-9.566-24.781-5.751-6.784-42.487-35.831-58.88-47.053-12.749-8.678-32.896-20.898-42.317-25.668-13.918-6.921-27.913-8.132-41.685-3.567-3.012 1.007-5.163 1.903-7.185 2.961-6.972 3.661-12.092 9.429-22.042 21.666-10.658 12.868-12.877 15.369-12.851 15.369-1.007.606-2.611 1.459-4.557 2.347-7.927 3.61-20.924.64-42.061-9.66-17.835-8.627-33.852-19.703-51.942-35.9-15.411-13.73-30.908-31.539-39.509-45.355-11.947-19.166-19.174-41.344-19.26-51.644 0-4.011 1.758-9.771 3.661-12.945l.836-.862a54.899 54.899 0 012.039-1.886c2.97-2.671 7.27-6.246 11.75-9.788 19.661-15.488 25.89-21.76 29.218-33.408 3.217-10.769.393-24.03-8.892-41.719-13.833-26.394-57.694-82.569-75.998-94.413-3.012-1.886-7.97-4.429-11.477-5.606-7.509-2.654-18.295-3.558-25.003-2.133-9.284 1.903-19.473 7.748-41.958 24.081-12.321 9.02-31.316 26.658-36.471 35.089-12.16 20.42-9.062 38.135 1.963 67.806 10.505 28.314 23.979 56.815 39.996 84.642l.836 1.408a615.617 615.617 0 009.993 16.7l.896 1.408c3.439 5.47 6.921 10.931 10.564 16.367l5.743 8.354c2.142 3.123 4.275 6.238 6.485 9.336a711.918 711.918 0 0013.466 18.176c49.399 64.324 106.308 115.968 173.969 157.858l2.773 1.741c9.822 6.016 20.275 12.032 31.061 17.869l4.215 2.27c11.162 5.939 21.768 11.264 32.427 16.256l3.319 1.51c12.587 5.828 24.098 10.837 35.174 15.3 13.406 5.41 19.61 7.066 29.03 7.066 1.673 0 3.456-.051 5.402-.145 6.076-.29 11.537-1.195 16.708-2.773 7.262-2.202 14.532-5.897 22.852-11.64a162.513 162.513 0 004.463-3.166c1.843-1.357 3.806-3.021 5.794-4.736 9.481-8.201 20.361-20.113 29.124-31.863 4.676-6.272 10.889-15.377 13.986-23.194 2.901-7.313 4.215-14.609 3.908-21.666v-.009z"/></svg>