<?xml version="1.0" encoding="iso-8859-1"?><!DOCTYPE svg PUBLIC "-//W3C//DTD SVG 1.1//EN" "http://www.w3.org/Graphics/SVG/1.1/DTD/svg11.dtd"><svg xmlns="http://www.w3.org/2000/svg" width="96.496" height="96.496" viewBox="0 0 96.496 96.496" fill="#fff"><path d="M92.499 65.178c-2.873-3.446-6.254-6.387-9.453-9.51-2.886-2.815-3.068-4.448-.748-7.697 2.532-3.546 5.255-6.956 7.81-10.486 2.385-3.299 4.823-6.589 6.078-10.539.796-2.513.092-3.623-2.485-4.063-.444-.077-.903-.081-1.355-.081l-15.289-.018c-1.883-.028-2.924.793-3.59 2.462-.899 2.256-1.826 4.51-2.897 6.687-2.43 4.936-5.144 9.707-8.949 13.747-.839.891-1.767 2.017-3.169 1.553-1.754-.64-2.271-3.53-2.242-4.507l-.015-17.647c-.34-2.521-.899-3.645-3.402-4.135l-15.882.003c-2.12 0-3.183.819-4.315 2.145-.653.766-.85 1.263.492 1.517 2.636.5 4.121 2.206 4.515 4.849.632 4.223.588 8.463.224 12.703-.107 1.238-.32 2.473-.811 3.629-.768 1.817-2.008 2.187-3.637 1.069-1.475-1.012-2.511-2.44-3.525-3.874-3.809-5.382-6.848-11.186-9.326-17.285-.716-1.762-1.951-2.83-3.818-2.859a389.727 389.727 0 00-13.762.004c-2.76.052-3.583 1.392-2.459 3.894 4.996 11.113 10.557 21.917 17.816 31.759 3.727 5.051 8.006 9.51 13.534 12.67 6.265 3.582 13.009 4.66 20.112 4.328 3.326-.156 4.325-1.021 4.479-4.336.104-2.268.361-4.523 1.48-6.561 1.098-2 2.761-2.381 4.678-1.137.959.623 1.767 1.416 2.53 2.252 1.872 2.048 3.677 4.158 5.62 6.137 2.437 2.48 5.324 3.945 8.954 3.646l14.052.003c2.264-.148 3.438-2.924 2.138-5.451-.913-1.77-2.111-3.346-3.383-4.871z"/></svg>