<?xml version="1.0" encoding="iso-8859-1"?><svg xmlns="http://www.w3.org/2000/svg" viewBox="0 0 512.001 512.001"><path d="M506.239 180.613a15 15 0 00-16.746-1.169l-124.501 71.98-96.068-163.039a15.001 15.001 0 00-25.848 0l-96.067 163.039-124.501-71.98A15 15 0 00.586 196.581l64.378 223.57a15 15 0 0014.414 10.85h353.244a15 15 0 0014.414-10.85l64.378-223.57a14.998 14.998 0 00-5.175-15.968z" fill="#ffae39"/><path d="M506.239 180.613a15 15 0 00-16.746-1.169l-124.501 71.98-96.068-163.039A15.001 15.001 0 00256 81v350h176.622a15 15 0 0014.414-10.85l64.378-223.57a14.997 14.997 0 00-5.175-15.967z" fill="#fc9d26"/><path d="M19.781 263.241l141.56 81.84 84.95-72.09c5.6-4.75 13.82-4.75 19.42 0l84.95 72.09 141.56-81.84-11.97 41.57-123.72 71.53a14.981 14.981 0 01-17.22-1.55l-83.31-70.69-83.31 70.69a14.987 14.987 0 01-17.22 1.55l-123.71-71.52h-.01l-11.97-41.58z" fill="#f8eb76"/><path d="M350.661 345.081l-84.95-72.09a14.981 14.981 0 00-9.71-3.563V304.1l83.31 70.69a14.981 14.981 0 0017.22 1.55l123.72-71.53 11.97-41.57-141.56 81.841z" fill="#fad557"/></svg>