<?xml version="1.0" encoding="utf-8"?>
<!-- Generator: Adobe Illustrator 24.0.1, SVG Export Plug-In . SVG Version: 6.00 Build 0)  -->
<svg version="1.1" id="Слой_1" xmlns="http://www.w3.org/2000/svg" xmlns:xlink="http://www.w3.org/1999/xlink" x="0px" y="0px"
	 viewBox="0 0 512 389" style="enable-background:new 0 0 512 389;" xml:space="preserve">
<style type="text/css">
	.st0{opacity:0.27;fill:#8424BA;}
	.st1{fill-rule:evenodd;clip-rule:evenodd;fill:url(#SVGID_1_);}
	.st2{fill-rule:evenodd;clip-rule:evenodd;fill:url(#SVGID_2_);}
	.st3{fill-rule:evenodd;clip-rule:evenodd;fill:url(#SVGID_3_);}
	.st4{fill-rule:evenodd;clip-rule:evenodd;fill:#932F31;}
	.st5{fill-rule:evenodd;clip-rule:evenodd;fill:url(#SVGID_4_);}
	.st6{opacity:0.6;fill-rule:evenodd;clip-rule:evenodd;fill:url(#SVGID_5_);}
	.st7{fill-rule:evenodd;clip-rule:evenodd;fill:url(#SVGID_6_);}
	.st8{fill-rule:evenodd;clip-rule:evenodd;fill:url(#SVGID_7_);}
	.st9{opacity:0.8;fill-rule:evenodd;clip-rule:evenodd;fill:#CE777C;}
	.st10{fill-rule:evenodd;clip-rule:evenodd;fill:url(#SVGID_8_);}
	.st11{fill-rule:evenodd;clip-rule:evenodd;fill:url(#SVGID_9_);}
	.st12{fill-rule:evenodd;clip-rule:evenodd;fill:url(#SVGID_10_);}
	.st13{fill-rule:evenodd;clip-rule:evenodd;fill:url(#SVGID_11_);}
	.st14{fill-rule:evenodd;clip-rule:evenodd;fill:url(#SVGID_12_);}
	.st15{fill-rule:evenodd;clip-rule:evenodd;fill:url(#SVGID_13_);}
	.st16{fill-rule:evenodd;clip-rule:evenodd;fill:url(#SVGID_14_);}
	.st17{fill-rule:evenodd;clip-rule:evenodd;fill:#9D3D3A;}
	.st18{fill-rule:evenodd;clip-rule:evenodd;fill:#75272C;}
	.st19{fill-rule:evenodd;clip-rule:evenodd;fill:url(#SVGID_15_);}
	.st20{fill-rule:evenodd;clip-rule:evenodd;fill:url(#SVGID_16_);}
	.st21{fill-rule:evenodd;clip-rule:evenodd;fill:#FFFFFF;}
	.st22{fill-rule:evenodd;clip-rule:evenodd;fill:#BD4C3A;}
	.st23{fill-rule:evenodd;clip-rule:evenodd;fill:url(#SVGID_17_);}
	.st24{fill-rule:evenodd;clip-rule:evenodd;fill:url(#SVGID_18_);}
	.st25{fill-rule:evenodd;clip-rule:evenodd;fill:url(#SVGID_19_);}
	.st26{fill-rule:evenodd;clip-rule:evenodd;fill:url(#SVGID_20_);}
	.st27{fill-rule:evenodd;clip-rule:evenodd;fill:url(#SVGID_21_);}
	.st28{fill-rule:evenodd;clip-rule:evenodd;fill:#F5F5F5;}
	.st29{fill-rule:evenodd;clip-rule:evenodd;fill:#FF9F30;}
	.st30{opacity:0.6;fill-rule:evenodd;clip-rule:evenodd;fill:url(#SVGID_22_);}
	.st31{opacity:0.6;fill-rule:evenodd;clip-rule:evenodd;fill:url(#SVGID_23_);}
	.st32{opacity:0.6;fill-rule:evenodd;clip-rule:evenodd;fill:url(#SVGID_24_);}
	.st33{opacity:0.6;fill-rule:evenodd;clip-rule:evenodd;fill:url(#SVGID_25_);}
	.st34{opacity:0.6;fill-rule:evenodd;clip-rule:evenodd;fill:url(#SVGID_26_);}
	.st35{fill-rule:evenodd;clip-rule:evenodd;fill:#FFC763;}
	.st36{fill-rule:evenodd;clip-rule:evenodd;fill:url(#SVGID_27_);}
	.st37{fill-rule:evenodd;clip-rule:evenodd;fill:url(#SVGID_28_);}
	.st38{fill-rule:evenodd;clip-rule:evenodd;fill:url(#SVGID_29_);}
</style>
<g>
	<path class="st0" d="M39.2,367.9c3,2.2,8.3,3.9,13.5,5.4h433.1c0.7-0.4,1.3-0.8,1.9-1.3c3.8-3.2,5.8-7.9,7.5-12.6
		c8.2-22.4,12.7-46.5,9.8-70.2c-2.9-23.7-13.6-46.8-31.8-62.2c-9.3-7.8-20.4-13.5-29.1-22c-26.8-26-27.2-73.1-58-94.3
		c-14.2-9.7-32.3-11.8-49.5-10.7c-16,1.1-32.1,4.8-46,12.9c-14.5,8.5-25.9,21.2-37.9,32.9c-24.1,23.4-53.5,43.8-86.9,47.7
		c-21.3,2.5-42.8-1.9-64.1-0.6c-23.3,1.4-46.2,9.8-64.9,23.7c-12,8.9-22.6,20.4-27.8,34.4c-7.7,20.7-2.8,44,4.6,64.9
		C18.7,330.3,26.7,358.5,39.2,367.9z"/>
	<path class="st0" d="M475.1,308.8c-11.4,21.4-22.9,42.7-34.3,64c-1.5,2.9-3.2,5.9-5.9,7.7c-3.5,2.4-8,2.3-12.2,2.2
		c-22.8-0.6-45.5-1.1-68.3-1.3c-52.5-0.5-104.9-1-157.4-1.4c-23.5-0.2-47.1-0.4-70.6-0.6c-15.4-0.1-30.7,0.4-46.1,0.5
		c-7.8,0-16.1-1.5-21.9-6.7c-4.8-4.4-7.2-10.7-9.3-16.9c-11.2-33.1-18-67.8-20.1-102.7c-1.8-30,4.9-60.2,28.9-80.4
		c8.9-7.5,19.5-13,27.9-21.1c25.7-25,26.1-70.2,55.7-90.5c13.6-9.4,31-11.4,47.5-10.3c15.4,1,30.9,4.6,44.2,12.4
		c13.9,8.1,24.8,20.4,36.4,31.6c23.2,22.5,51.3,42,83.4,45.8c20.4,2.4,41.1-1.8,61.6-0.5c22.4,1.4,44.3,9.4,62.3,22.7
		c11.5,8.6,21.7,19.6,26.7,33.1c10.9,29.4-1,60.3-14.8,86.5C484.3,291.5,479.7,300.2,475.1,308.8z"/>
</g>
<g>
	
		<linearGradient id="SVGID_1_" gradientUnits="userSpaceOnUse" x1="-20.4009" y1="82.6762" x2="-20.4009" y2="5.1846" gradientTransform="matrix(-1 0 0 1 107.4399 0)">
		<stop  offset="0.3802" style="stop-color:#9A4327"/>
		<stop  offset="0.9972" style="stop-color:#592930"/>
	</linearGradient>
	<path class="st1" d="M160,36.8c0,0-14.9-29.8-38.2-31.6c0,0-15.3,2.4-21.6,15.3c-8.6,17.9-3.1,42.2,3,52.5c6.1,10.3,26,9.7,26,9.7
		S138.7,55.9,160,36.8z"/>
	
		<radialGradient id="SVGID_2_" cx="-12.364" cy="53.9513" r="25.4877" gradientTransform="matrix(-1 0 0 1 107.4399 0)" gradientUnits="userSpaceOnUse">
		<stop  offset="1.711450e-02" style="stop-color:#FFC772"/>
		<stop  offset="1" style="stop-color:#FF9D48"/>
	</radialGradient>
	<path class="st2" d="M141.6,53.2c0,0-16.5-28-30.8-28c-14.3,0-14.1,23-11.2,34.8c2.9,11.7,5.4,21.9,27.7,22.7
		C127.3,82.7,132.3,68.1,141.6,53.2z"/>
	
		<radialGradient id="SVGID_3_" cx="-18.0635" cy="78.1406" r="21.024" gradientTransform="matrix(-1 0 0 1 107.4399 0)" gradientUnits="userSpaceOnUse">
		<stop  offset="1.711450e-02" style="stop-color:#FFC772"/>
		<stop  offset="1" style="stop-color:#FFC381"/>
	</radialGradient>
	<path class="st3" d="M141.6,53.2c0,0-16.5-2.8-32.1,18.9c0,0,8.3-7.7,21.3-8.6c0,0-9,2.1-14.4,11.5c-5.4,9.4,3.4,28.1,3.4,28.1
		S125.5,85.2,141.6,53.2z"/>
	<path class="st4" d="M224.5,312.1c0,0-11.3,8.3-9.4,27.7c1.9,19.4,29.1,28.9,29.1,28.9l7.7,9.8l51.6-2.4l11.3-42.3L224.5,312.1z"/>
	<path class="st4" d="M181.6,267.4c0,0-6.9,8.9-23.6,16.7c-16.7,7.7-18.5,8.5-21,14.6c-2.5,6.1-1.5,28.6,3.1,38.1
		c4.6,9.5,18.6,12.4,24.4,8.5c5.8-3.9,9.4-10.9,10-16.7c0.6-5.8-0.7-15.2-0.7-15.2s20.7,7,30.5-1.3c9.8-8.3,10.7-29.8,10.7-29.8
		S187.6,267.3,181.6,267.4z"/>
	<radialGradient id="SVGID_4_" cx="248.4673" cy="286.5128" r="80.2617" gradientUnits="userSpaceOnUse">
		<stop  offset="1.711450e-02" style="stop-color:#FFC772"/>
		<stop  offset="1" style="stop-color:#FFC381"/>
	</radialGradient>
	<path class="st5" d="M330.3,344.3l-19.3,9.6l-22.8,11.3c0,0-6.3-2.3-15.7-6.5c-1-0.4-2-0.9-3-1.4c-8.9-4.1-19.9-9.6-31-16.4
		c-11.9-7.3-23.9-16.1-33.3-26c-2.4-2.5-4.5-5-6.4-7.5c0,0-0.1-0.1-0.1-0.1c-21.7-28.2-17.5-55.6-17.5-55.6l-14.5,2.5
		c8.8-4.5,16.1-11.4,21.6-17.9c7.7-9,11.9-17.3,11.9-17.3c7.6-7.1,48.2-11.1,48.2-11.1s1.1,2.9,3.8,7.7c2.4,4.3,5.9,10.2,10.9,17
		c1.4,1.9,3.5,4.4,6.1,7.2c17,18.5,54.7,52.3,54.7,52.3L330.3,344.3z"/>
	<linearGradient id="SVGID_5_" gradientUnits="userSpaceOnUse" x1="198.7209" y1="336.2592" x2="310.9302" y2="336.2592">
		<stop  offset="0" style="stop-color:#FFF2EF"/>
		<stop  offset="0.9829" style="stop-color:#E08893"/>
	</linearGradient>
	<path class="st6" d="M310.9,353.9l-22.8,11.3c0,0-6.3-2.3-15.7-6.5c-1-0.4-2-0.9-3-1.4c-8.9-4.1-19.9-9.6-31-16.4
		c-11.9-7.3-23.9-16.1-33.3-26c-2.4-2.5-4.5-5-6.4-7.5c1.3,1.4,22.6,24.5,50.9,27.5c29.2,3.1,38.5-16.5,38.5-16.5L310.9,353.9z"/>
	<radialGradient id="SVGID_6_" cx="289.9778" cy="256.8329" r="82.0109" gradientUnits="userSpaceOnUse">
		<stop  offset="1.711450e-02" style="stop-color:#FF8E27"/>
		<stop  offset="1" style="stop-color:#FF6543"/>
	</radialGradient>
	<path class="st7" d="M341.8,370.5c0.5,3.1,0.7,6.8-1.1,8.4c-3.4,3.1-64.5,1.5-64.5,1.5s-4.7-13.4-3.8-21.7c0-0.2,0-0.3,0.1-0.5
		c0.2-1.3,0.5-2.5,1-3.4c3.9-6.9,23.3-4,23.3-4s-14.1-26.9-8.9-41.2s14.7-14.3,14.7-14.3s-10.7-17.9-25.5-19c0,0,0.3,1.6,0.8,4.3
		c1.7,9.6,5.5,33.3,3.4,48c-1.1,8.2-6.3,19.1-11.9,28.8c-7.4,12.8-15.3,23.5-15.3,23.5l-29.6-1.1c0,0-4.2-8.4-5-14.5
		c-0.3-2-0.2-3.8,0.5-4.9c2.8-4.8,10.5-3.6,14-7c1.4-1.3,3.1-5.6,4.4-12.4c2-10.7,2.9-27.7-0.4-49.4c-1.6-10.5-2.6-20-3-28.3
		c-0.9-19.7,1.4-33.1,6.8-39.2c3.8-4.3,7.3-7.1,10.5-8.4c3.3-1.3,6.2-1.2,8.5,0.4c0,0,4.5,8.9,13,20.3c6.8,9.1,16.2,19.7,27.9,28.5
		c26.2,19.7,42.6,24.7,51.6,38.4c8.9,13.7,0.3,50.1-12.8,61.7C340.4,364.9,341.3,367.5,341.8,370.5z"/>
	<radialGradient id="SVGID_7_" cx="231.3334" cy="226.0908" r="23.1289" gradientUnits="userSpaceOnUse">
		<stop  offset="5.586590e-03" style="stop-color:#008B60"/>
		<stop  offset="1" style="stop-color:#004F53"/>
	</radialGradient>
	<path class="st8" d="M200.2,219c0,0,6.5,16.8,24.2,17.3c17.7,0.4,38-17.3,38-17.3l-1.6-3L200.2,219z"/>
	<path class="st9" d="M273.8,236.2c0,0-1.6,1.4-4.4,3.6c-6.8,5.4-20.6,15.8-34.4,23.3c-11,6-22.1,10.1-29.7,8.2
		c-21-5.1-17-35.1-17-35.1c7.7-9,11.9-17.3,11.9-17.3c7.6-7.1,48.2-11.1,48.2-11.1s1.1,2.9,3.8,7.7c3.3-1.3,6.2-1.2,8.5,0.4
		C260.8,215.9,265.3,224.9,273.8,236.2z"/>
	<linearGradient id="SVGID_8_" gradientUnits="userSpaceOnUse" x1="321.2474" y1="82.6762" x2="321.2474" y2="5.1846">
		<stop  offset="0.3802" style="stop-color:#9A4327"/>
		<stop  offset="0.9972" style="stop-color:#592930"/>
	</linearGradient>
	<path class="st10" d="M289.1,36.8c0,0,14.9-29.8,38.2-31.6c0,0,15.3,2.4,21.6,15.3c8.6,17.9,3.1,42.2-3,52.5
		c-6.1,10.3-26,9.7-26,9.7S310.4,55.9,289.1,36.8z"/>
	<radialGradient id="SVGID_9_" cx="228.3415" cy="66.8968" r="125.4058" gradientUnits="userSpaceOnUse">
		<stop  offset="1.711450e-02" style="stop-color:#FF8E27"/>
		<stop  offset="1" style="stop-color:#FF6543"/>
	</radialGradient>
	<path class="st11" d="M366,161.4l-13.7-3c0,0-2.9,4.2-8.3,10.3c-13.9,15.6-44.7,43.9-88,47.8c0,0-10.9,12.1-26.2,16.1l1-2.7
		c0,0-11.9-3.4-22.3-10.6c-0.9,0-77.2-0.1-110.4-46.6l-15.2,1.2c0,0,2.4-2.7,6.1-7.6c8.6-11.5,24-35.2,31.7-66.3
		c11-44.4,36.1-63.2,36.1-63.2s37.4-26.2,82-26.2l-9.6,4.8c0,0,53.4,8.9,75.4,34.3C326.7,74.9,327.6,129.2,366,161.4z"/>
	<radialGradient id="SVGID_10_" cx="225.2279" cy="195.4783" r="93.6297" gradientUnits="userSpaceOnUse">
		<stop  offset="1.711450e-02" style="stop-color:#FFC772"/>
		<stop  offset="1" style="stop-color:#FFC381"/>
	</radialGradient>
	<path class="st12" d="M352.3,158.4c0,0-36.1,52.7-96.3,58.1c0,0-10.9,12.1-26.2,16.1l1-2.7c0,0-11.9-3.4-22.3-10.6
		c-0.9,0-77.2-0.1-110.4-46.6c42.9,29.8,95.7-2.5,95.7-2.5c34.9,5.5,60.4-0.5,60.4-0.5C316.8,193.1,352.3,158.4,352.3,158.4z"/>
	
		<radialGradient id="SVGID_11_" cx="242.3228" cy="176.4186" r="26.6173" gradientTransform="matrix(0.874 0 0 1 14.9566 0)" gradientUnits="userSpaceOnUse">
		<stop  offset="1.711450e-02" style="stop-color:#9A4327"/>
		<stop  offset="0.9469" style="stop-color:#8B3B30"/>
	</radialGradient>
	<path class="st13" d="M194.5,169.4l2.7,6.9c0,0,17.6,0.7,24.1,7.8h5.3h5.3c6.4-7.2,24.1-7.8,24.1-7.8l2.9-7.6
		C235,171.3,218.5,172,194.5,169.4z"/>
	<radialGradient id="SVGID_12_" cx="287.5615" cy="115.5634" r="45.6322" gradientUnits="userSpaceOnUse">
		<stop  offset="1.711450e-02" style="stop-color:#FFEC72"/>
		<stop  offset="1" style="stop-color:#FFBD8C"/>
	</radialGradient>
	<path class="st14" d="M255.8,162c-12.4-4.6-12.5-58.1-3.4-84.7c9.2-26.6,59.2-1.3,70.6,31.5c11.5,32.9,4.2,42.5-3.2,46.3
		C312.6,158.9,278.2,170.3,255.8,162z"/>
	<radialGradient id="SVGID_13_" cx="329.284" cy="53.9513" r="25.4877" gradientUnits="userSpaceOnUse">
		<stop  offset="1.711450e-02" style="stop-color:#FFC772"/>
		<stop  offset="1" style="stop-color:#FF9D48"/>
	</radialGradient>
	<path class="st15" d="M307.5,53.2c0,0,16.5-28,30.8-28c14.3,0,14.1,23,11.2,34.8c-2.9,11.7-5.4,21.9-27.7,22.7
		C321.8,82.7,316.8,68.1,307.5,53.2z"/>
	<radialGradient id="SVGID_14_" cx="323.5845" cy="78.1406" r="21.024" gradientUnits="userSpaceOnUse">
		<stop  offset="1.711450e-02" style="stop-color:#FFC772"/>
		<stop  offset="1" style="stop-color:#FFC381"/>
	</radialGradient>
	<path class="st16" d="M307.5,53.2c0,0,16.5-2.8,32.1,18.9c0,0-8.3-7.7-21.3-8.6c0,0,9,2.1,14.4,11.5c5.4,9.4-3.4,28.1-3.4,28.1
		S323.6,85.2,307.5,53.2z"/>
	<path class="st17" d="M247.9,97.6c0,0,3.8-27.9,22.1-28.4c18.2-0.4,51.3,25.9,58.5,59.4c0,0,1.6-18.8-18-40.4
		c-19.6-21.5-39-30.2-49.8-25.3S247.9,97.6,247.9,97.6z"/>
	<g>
		<path class="st18" d="M252.8,138.1c0,0-4.7-36.7,21.4-44.3c26.1-7.7,45.9,19.7,41.2,45.4L252.8,138.1z"/>
		<linearGradient id="SVGID_15_" gradientUnits="userSpaceOnUse" x1="284.0576" y1="163.6908" x2="284.0576" y2="97.7597">
			<stop  offset="0" style="stop-color:#FFFFFF"/>
			<stop  offset="0.9829" style="stop-color:#FBC9CE"/>
		</linearGradient>
		<path class="st19" d="M255.3,151.2c4.6,15.6,34.9,16.4,52.2,3.3c17.2-13.1,5-51.6-19.9-56.2C262.6,93.7,245.6,118.4,255.3,151.2z"
			/>
		
			<radialGradient id="SVGID_16_" cx="259.7944" cy="139.9326" r="17.8214" gradientTransform="matrix(1.111 0 0 1.1402 -11.7002 -13.6135)" gradientUnits="userSpaceOnUse">
			<stop  offset="1.711450e-02" style="stop-color:#FFC710"/>
			<stop  offset="0.7682" style="stop-color:#FF7700"/>
			<stop  offset="1" style="stop-color:#AE4B00"/>
		</radialGradient>
		<ellipse class="st20" cx="275.5" cy="134.8" rx="19.8" ry="20.3"/>
		<ellipse class="st18" cx="275.5" cy="134.8" rx="13.4" ry="13.8"/>
		<path class="st21" d="M296.9,126.4c0,1.9-1.5,3.4-3.4,3.4c-1.9,0-3.4-1.5-3.4-3.4c0-1.9,1.5-3.4,3.4-3.4
			C295.3,123,296.9,124.5,296.9,126.4z"/>
		<path class="st21" d="M296.9,155.1l-12.8-14.9l-12.9,2.5l-3.1,17.5C268,160.2,288.9,166.2,296.9,155.1z"/>
		<path class="st22" d="M255.7,152.2c0,0,2,14.5,29.2,12.2c27.2-2.3,29.6-20.5,29.6-20.5s-1.8,14.9-31.2,19
			C262.8,165.7,255.7,152.2,255.7,152.2z"/>
	</g>
	
		<radialGradient id="SVGID_17_" cx="24.1459" cy="115.5634" r="45.6322" gradientTransform="matrix(-1 0 0 1 187.9328 0)" gradientUnits="userSpaceOnUse">
		<stop  offset="1.711450e-02" style="stop-color:#FFEC72"/>
		<stop  offset="1" style="stop-color:#FFBD8C"/>
	</radialGradient>
	<path class="st23" d="M195.5,162c12.4-4.6,12.5-58.1,3.4-84.7c-9.2-26.6-59.2-1.3-70.6,31.5c-11.5,32.9-4.2,42.5,3.2,46.3
		C138.8,158.9,173.2,170.3,195.5,162z"/>
	<path class="st17" d="M203.5,97.6c0,0-3.8-27.9-22.1-28.4c-18.2-0.4-51.3,25.9-58.5,59.4c0,0-1.6-18.8,18-40.4
		c19.6-21.5,39-30.2,49.8-25.3C201.7,67.8,203.5,97.6,203.5,97.6z"/>
	<g>
		<path class="st18" d="M198.6,138.1c0,0,4.7-36.7-21.4-44.3c-26.1-7.7-45.9,19.7-41.2,45.4L198.6,138.1z"/>
		
			<linearGradient id="SVGID_18_" gradientUnits="userSpaceOnUse" x1="20.6421" y1="163.6908" x2="20.6421" y2="97.7597" gradientTransform="matrix(-1 0 0 1 187.9328 0)">
			<stop  offset="0" style="stop-color:#FFFFFF"/>
			<stop  offset="0.9829" style="stop-color:#FBC9CE"/>
		</linearGradient>
		<path class="st24" d="M196,151.2c-4.6,15.6-34.9,16.4-52.2,3.3c-17.2-13.1-5-51.6,19.9-56.2C188.7,93.7,205.7,118.4,196,151.2z"/>
		
			<radialGradient id="SVGID_19_" cx="22.6968" cy="139.9326" r="17.8214" gradientTransform="matrix(-1.111 0 0 1.1402 199.633 -13.6135)" gradientUnits="userSpaceOnUse">
			<stop  offset="1.711450e-02" style="stop-color:#FFC710"/>
			<stop  offset="0.7682" style="stop-color:#FF7700"/>
			<stop  offset="1" style="stop-color:#AE4B00"/>
		</radialGradient>
		<ellipse class="st25" cx="175.9" cy="134.8" rx="19.8" ry="20.3"/>
		<path class="st18" d="M162.5,134.8c0,7.6,6,13.8,13.4,13.8c7.4,0,13.4-6.2,13.4-13.8c0-7.6-6-13.8-13.4-13.8
			C168.5,121,162.5,127.2,162.5,134.8z"/>
		<path class="st21" d="M154.5,126.4c0,1.9,1.5,3.4,3.4,3.4s3.4-1.5,3.4-3.4c0-1.9-1.5-3.4-3.4-3.4S154.5,124.5,154.5,126.4z"/>
		<path class="st21" d="M154.5,155.1l12.8-14.9l12.9,2.5l3.1,17.5C183.3,160.2,162.4,166.2,154.5,155.1z"/>
		<path class="st22" d="M195.7,152.2c0,0-2,14.5-29.2,12.2c-27.2-2.3-29.6-20.5-29.6-20.5s1.8,14.9,31.2,19
			C188.5,165.7,195.7,152.2,195.7,152.2z"/>
	</g>
	<radialGradient id="SVGID_20_" cx="237.1606" cy="200.2974" r="12.8103" gradientUnits="userSpaceOnUse">
		<stop  offset="1.711450e-02" style="stop-color:#9A4327"/>
		<stop  offset="0.9469" style="stop-color:#8B3B30"/>
	</radialGradient>
	<path class="st26" d="M221.9,207.8c1.8,3.5,28.5,1.3,30.7-3.1c2.2-4.5-16.6-15.5-22.7-13.4C223.7,193.4,220.6,205.5,221.9,207.8z"
		/>
	<linearGradient id="SVGID_21_" gradientUnits="userSpaceOnUse" x1="236.0657" y1="208.1495" x2="236.0657" y2="192.3294">
		<stop  offset="5.586590e-03" style="stop-color:#C9311F"/>
		<stop  offset="1" style="stop-color:#971E53"/>
	</linearGradient>
	<path class="st27" d="M223.1,206.9c1.5,2.9,25.2,0.1,26.4-3.2c1.3-3.3-10.4-13-18.6-11.2C222.7,194.4,221.6,204.2,223.1,206.9z"/>
	<path class="st28" d="M222.8,206.3c0,0,1.1-2.4,2.4-2.4c1.3,0.1,1.5,4.1,1.5,4.1S223.1,208.1,222.8,206.3z"/>
	<path class="st28" d="M244.5,206.2c0,0-0.7-3.7,0.8-4.5c1.5-0.8,4.2,2.1,4.2,2.1S248.7,205.3,244.5,206.2z"/>
	<path class="st29" d="M194.5,169.4l8.9-12.7c0,0,19.7-9.6,43.4-1.5l12,13.6C258.9,168.7,223.6,174.9,194.5,169.4z"/>
	<path class="st18" d="M194.5,169.4c0,0,34.4,3.1,64.4-0.7C258.9,168.7,221,175.9,194.5,169.4z"/>
	<linearGradient id="SVGID_22_" gradientUnits="userSpaceOnUse" x1="90.5222" y1="173.8552" x2="90.5222" y2="166.2111">
		<stop  offset="1.711450e-02" style="stop-color:#E08893"/>
		<stop  offset="1" style="stop-color:#FFF2EF"/>
	</linearGradient>
	<path class="st30" d="M89.1,166.2c2.8,1.6,5.8,3.7,9.1,6.5l-15.2,1.2C82.9,173.9,85.4,171.2,89.1,166.2z"/>
	<linearGradient id="SVGID_23_" gradientUnits="userSpaceOnUse" x1="221.0754" y1="232.5786" x2="221.0754" y2="168.6884">
		<stop  offset="1.711450e-02" style="stop-color:#E08893"/>
		<stop  offset="1" style="stop-color:#FFF2EF"/>
	</linearGradient>
	<path class="st31" d="M344,168.7c-13.9,15.6-44.7,43.9-88,47.8c0,0-10.9,12.1-26.2,16.1l1-2.7c0,0-11.9-3.4-22.3-10.6
		c-0.9,0-77.2-0.1-110.4-46.6c52.2,44.1,111.7,38.3,111.7,38.3s5.8,10.5,21.5,11.6c15.7,1.1,24.3-13,24.3-13
		C305.5,207.9,344,168.7,344,168.7L344,168.7z"/>
	<path class="st17" d="M207.3,14.6c0,0,16.4,23.5,15.8,80.5c0,0,4.2-37.2,14.9-78l-8.8-1.8l9.6-4.8
		C238.9,10.5,220.6,10.6,207.3,14.6z"/>
	<path class="st17" d="M252.6,21c0,0-12.7,28.5-14.6,57.1c0,0,16.6-38.3,44.5-45.2C282.4,33,265.4,23.5,252.6,21z"/>
	<path class="st17" d="M175.4,26.3c0,0,22.8,10,32.2,39.9c0,0-0.5-27.2-8.8-49.1C198.8,17,185.6,20.9,175.4,26.3z"/>
	<path class="st17" d="M346.6,139.2c0,0-0.9,12.8-20.6,24.5c-19.7,11.7-50.6,12.7-50.6,12.7s54.7,10.3,76.9-18l13.7,3L346.6,139.2z"
		/>
	<path class="st17" d="M331.6,109.2c0,0,10.3,33.2-13.6,49.2c0,0,23.8-6.8,25.3-24.6C343.3,133.8,333.9,115.2,331.6,109.2z"/>
	<path class="st17" d="M103.4,143.8c0,0-1.8,20.2,19.6,30c21.4,9.8,52.4,4.8,52.4,4.8s-43.2,18.6-77.2-6l-15.2,1.2L103.4,143.8z"/>
	<path class="st17" d="M114.1,121c0,0-3.1,21,5.7,30.9c8.9,9.9,30.1,13,30.1,13s-20.2,3.8-34.4-3.2c-14.2-6.9-10.1-21.6-10.1-21.6
		S112.4,125.5,114.1,121z"/>
	<path class="st17" d="M235.6,271.8c0,0,10.5-9.7,32.4,0c0,0-13.7,2.2-31.2,11.5L235.6,271.8z"/>
	<path class="st17" d="M239.3,302.6c0,0,15.2-13.1,37.9,0c0,0-27.5-1.4-37.2,9.5L239.3,302.6z"/>
	<path class="st17" d="M240.1,319.3c0,0,22.3-3.9,40.6,12.4c0,0-27.7-7.3-41.1,0L240.1,319.3z"/>
	<path class="st17" d="M239.3,335c0,0,22-4.5,34.5,14.2l-6.9,12.3c0,0-7-10.5-28.8-18.9L239.3,335z"/>
	<path class="st17" d="M293.5,258c0,0,10.2,15.4,8,32c0,0,5.1-7.5,3.9-22.5C305.3,267.4,296.8,261.1,293.5,258z"/>
	<path class="st17" d="M313.2,273c0,0,2.6,11.7-5.3,22.8c0,0,12.1-5,14.4-16.9L313.2,273z"/>
	<path class="st17" d="M355.1,307.2c0,0-5.4,8.3-29.6,9.4c-24.1,1.1-32.1,6.2-32.1,6.2s8.6-2.8,32.5,0c23.9,2.8,30.8-2.2,30.8-2.2
		S357.1,311.3,355.1,307.2z"/>
	<path class="st17" d="M356.3,325.3c0,0-7.2,9.1-32.5,13.5c0,0,22,3.9,30.9-2.4C354.7,336.4,355.7,332.6,356.3,325.3z"/>
	<linearGradient id="SVGID_24_" gradientUnits="userSpaceOnUse" x1="250.6905" y1="380.8149" x2="250.6905" y2="278.7742">
		<stop  offset="1.711450e-02" style="stop-color:#E08893"/>
		<stop  offset="1" style="stop-color:#FFF2EF"/>
	</linearGradient>
	<path class="st32" d="M281.3,328.5c-1.1,8.2-6.3,19.1-11.9,28.8c-7.4,12.8-15.3,23.5-15.3,23.5l-29.6-1.1c0,0-4.2-8.4-5-14.5
		c0,0,20.7,12.4,45.3-10.1c24.6-22.5,12.4-76.4,12.4-76.4l0.7,1.7C279.6,290.1,283.3,313.8,281.3,328.5z"/>
	<linearGradient id="SVGID_25_" gradientUnits="userSpaceOnUse" x1="307.2056" y1="380.8247" x2="307.2056" y2="358.1657">
		<stop  offset="1.711450e-02" style="stop-color:#E08893"/>
		<stop  offset="1" style="stop-color:#FFF2EF"/>
	</linearGradient>
	<path class="st33" d="M340.7,378.9c-3.4,3.1-64.5,1.5-64.5,1.5s-4.7-13.4-3.8-21.7c0-0.2,0-0.3,0.1-0.5c2.1,2.5,8.7,7.2,29.4,10.5
		c29.5,4.6,39.9,1.9,39.9,1.9C342.3,373.7,342.5,377.3,340.7,378.9z"/>
	<linearGradient id="SVGID_26_" gradientUnits="userSpaceOnUse" x1="300.9866" y1="354.9109" x2="300.9866" y2="312.145">
		<stop  offset="1.711450e-02" style="stop-color:#E08893"/>
		<stop  offset="1" style="stop-color:#FFF2EF"/>
	</linearGradient>
	<path class="st34" d="M296.8,350.7l18.4,4.2c0,0-28-25.2-28-42.8C287.1,312.1,284.5,327.2,296.8,350.7z"/>
	<path class="st29" d="M272.4,358.7c0,0,9.3,7.6,29.5,10c20.2,2.4,28.4-0.4,28.4-0.4s-15.6-14.2-33.5-17.5
		C278.9,347.4,272.4,354,272.4,358.7z"/>
	<path class="st22" d="M280.7,380.5c0,0-5.3-20.1,0-24.5c0,0-1,13.6,1.2,24.5H280.7z"/>
	<path class="st22" d="M289.7,380.5c0,0-0.1-12.5,1.3-15.8c1.4-3.2,4.2-4.3,4.2-4.3s-4.5,5.1-4.3,20.3L289.7,380.5z"/>
	<path class="st29" d="M220,360.3c0,0,3.6,4,19.6,4c16,0,17.9-4.5,17.9-4.5l-23.5-6.5C234,353.3,220.6,356.3,220,360.3z"/>
	<path class="st22" d="M226.3,379.8c0,0-4.7-12.7-3.4-16.6c1.3-3.9,5.9-5,5.9-5s-3.1,1-4.1,7C223.6,371.2,226.3,379.8,226.3,379.8z"
		/>
	<path class="st22" d="M233.9,380.1c0,0-1.8-12.1,0.5-16.3c2.3-4.2,8.9-3.9,8.9-3.9s-5.2-0.2-7.6,5.4
		C233.3,370.8,233.9,380.1,233.9,380.1z"/>
	<path class="st35" d="M293.5,304.5c-6.3,5.3,9.6,25.7,35.1,25.3c25.4-0.4,21.6-18.1,19.4-22.5C345.7,302.8,312.6,288.5,293.5,304.5
		z"/>
	<path class="st35" d="M166.7,41.6c-2.9,9.4,42.7,19.2,74,17.1c31.3-2.1,43.8-14.1,45.6-17.1c1.8-3-17.7-18.7-59.8-23
		C184.4,14.3,167.8,37.8,166.7,41.6z"/>
	<radialGradient id="SVGID_27_" cx="397.9461" cy="353.0229" r="39.9085" gradientUnits="userSpaceOnUse">
		<stop  offset="1.711450e-02" style="stop-color:#FF8E27"/>
		<stop  offset="1" style="stop-color:#FF6543"/>
	</radialGradient>
	<path class="st36" d="M443.7,376.5c-4.6,6.3-46.8,8.4-69.1,5.2c-22.4-3.1-20.4-26.1-20.4-26.1l-1.7-2.5l-2.1-3.1l6.7-27.1
		c0,0,7.8,12.7,31.5,19.8c19.2,5.8,33.7,4.6,42.7,5.6c0.4,0,0.7,0.1,0.9,0.1h0.1c1.7,0.3,3.2,0.6,4.4,1.1
		C444.4,352.8,448.3,370.3,443.7,376.5z"/>
	<path class="st17" d="M405.2,350.1c0,0,20.7-2.4,29.8,13.9c0,0-0.8-8.6-10.5-15.3L405.2,350.1z"/>
	<path class="st17" d="M400.1,345.5c0,0-2.6,1.8-2.2,3.6l7.3,0.9c0,0,3.2-1.9,6.5-3L400.1,345.5z"/>
	<path class="st17" d="M379.1,339.3l-1.3,5.4l8.9,1.9l1.7-4C388.4,342.7,381.5,340.4,379.1,339.3z"/>
	<path class="st9" d="M431.1,348.3c-2.6-0.2-6.6,0.5-6.6,0.5s-7.6,2.3-19.3,1.4c-11.7-0.9-34-6.6-43.7-5.3c-7.8,1-9,6.3-9.2,8.3
		l-2.1-3.1l6.7-27.1c0,0,7.8,12.7,31.5,19.8C407.6,348.5,422.1,347.2,431.1,348.3z"/>
	<linearGradient id="SVGID_28_" gradientUnits="userSpaceOnUse" x1="385.121" y1="383.4291" x2="385.121" y2="343.2597">
		<stop  offset="0" style="stop-color:#FFA252"/>
		<stop  offset="0.9829" style="stop-color:#FFC772"/>
	</linearGradient>
	<path class="st37" d="M405.2,350.1c0,0,15.1,13.9,12.4,32.4c0,0-27,2.9-46.8-1.5c-19.8-4.4-22.4-28.9-14-35.6
		C365.4,338.7,393.6,349.9,405.2,350.1z"/>
	<path class="st35" d="M356.9,350.1c-2.8,8.4,21.8,18.2,48.3,18.1c26.5-0.1,31.1-17.3,28.8-18.1c-2.3-0.8-7.1,2.3-28.8,1.2
		C383.6,350.2,360.9,338,356.9,350.1z"/>
	<path class="st17" d="M276.2,380.4c0,0,52.5,0.1,63.9-1.1C340,379.2,337.3,382.5,276.2,380.4z"/>
	<path class="st17" d="M224.5,379.7c0,0,24.1-1,29.6,1.1C254,380.8,234,381.3,224.5,379.7z"/>
	<path class="st18" d="M221.3,184.1c0,0-7.2-11.9-24.1-7.8C197.2,176.3,211.3,174.2,221.3,184.1z"/>
	<path class="st18" d="M232,184.1c0,0,9.5-11.3,24.1-7.8C256.1,176.3,243.5,174.6,232,184.1z"/>
	<radialGradient id="SVGID_29_" cx="160.2018" cy="275.317" r="16.9064" gradientUnits="userSpaceOnUse">
		<stop  offset="1.711450e-02" style="stop-color:#FF8E27"/>
		<stop  offset="1" style="stop-color:#FF6543"/>
	</radialGradient>
	<path class="st38" d="M138.5,295.8c0,0-0.6-1.5,18.5-5.6c19.1-4,23.8-21.9,23.8-21.9s-8.7,9.4-24.3,15.4
		C141,289.8,138.5,295.8,138.5,295.8z"/>
	<path class="st22" d="M270.4,263.3c0,0,9.2,26.6,11.4,50.2C281.8,313.5,280.2,275.3,270.4,263.3z"/>
	<path class="st22" d="M370.8,381c0,0,5.4,2.2,37.9,1.2c32.5-1,36.1-7.9,36.1-7.9s-0.1,1.9-1.9,3.8C441.1,380,401.3,389,370.8,381z"
		/>
	<path class="st17" d="M290.1,304.5c0,0,3.1-7.5,19.5-8.7c16.3-1.2,27.7,4.3,27.7,4.3s-17.2-8.2-35.1-5.5
		C302.2,294.6,293.1,296.8,290.1,304.5z"/>
	<path class="st21" d="M198.9,169.7c0,0,2.4-1.3,6.4-1.5c4.1-0.1,6,3.1,6,3.1S201.8,173.4,198.9,169.7z"/>
	<path class="st21" d="M230.4,182.5c0,0,2.4-8.1,6.8-10c4.3-1.9,18.9-2.5,18.9-2.5l-1.8,4.8c0,0-13.9-1.6-22.2,8L230.4,182.5z"/>
</g>
</svg>
