<svg xmlns="http://www.w3.org/2000/svg" xml:space="preserve" style="enable-background:new 0 0 469.333 469.333" viewBox="0 0 469.333 469.333"><path d="m438.827 186.347-80.213-88.149c-15.872-15.872-41.728-15.893-57.749.128-5.077 5.077-8.533 11.157-10.325 17.643-15.957-12.224-38.976-11.008-53.675 3.691a40.64 40.64 0 0 0-10.347 17.621c-15.957-12.181-38.976-10.987-53.653 3.712-4.971 4.971-8.384 10.901-10.24 17.216l-37.803-37.803c-15.872-15.872-41.728-15.893-57.749.128-15.893 15.872-15.893 41.728 0 57.621L212.31 323.392l-86.144 13.525c-23.275 3.328-40.832 23.552-40.832 47.083 0 17.643 14.357 32 32 32h201.152c31.339 0 60.8-12.203 82.965-34.368l33.557-33.557c22.144-22.123 34.325-51.563 34.325-82.859 0-29.227-10.837-57.237-30.506-78.869zm-18.902 146.645-33.557 33.557c-18.133 18.133-42.24 28.117-67.883 28.117H117.333c-5.888 0-10.667-4.779-10.667-10.667 0-12.971 9.685-24.128 22.677-25.984l106.987-16.811c3.968-.619 7.232-3.413 8.491-7.232 1.237-3.797.235-8-2.603-10.837L82.155 163.072c-7.573-7.573-7.573-19.904.107-27.605a19.436 19.436 0 0 1 13.739-5.675c4.971 0 9.941 1.899 13.739 5.696l106.731 106.731c4.16 4.16 10.923 4.16 15.083 0 2.069-2.091 3.115-4.821 3.115-7.552s-1.045-5.461-3.136-7.552l-43.584-43.584c-7.573-7.573-7.573-19.883.128-27.584 7.552-7.552 19.904-7.552 27.456 0l43.605 43.605c4.16 4.16 10.923 4.16 15.083 0a10.716 10.716 0 0 0 3.115-7.552c0-2.731-1.045-5.461-3.136-7.552l-22.251-22.251c-7.573-7.573-7.573-19.883.128-27.584 7.552-7.552 19.904-7.552 27.456 0l22.357 22.357c.043.021.021.021.021.021l.021.021.021.021.021.021h.021c.021 0 .021.021.021.021 4.181 3.968 10.795 3.883 14.869-.213 4.16-4.16 4.16-10.923 0-15.083l-.917-.917c-3.669-3.669-5.696-8.555-5.696-13.739s2.005-10.048 5.803-13.845c7.595-7.552 19.883-7.531 27.115-.363l79.872 87.787C439.125 218.389 448 241.301 448 265.216c0 25.6-9.963 49.664-28.075 67.776z"/><path d="M183.381 109.931C167.851 75.563 133.547 53.333 96 53.333c-52.928 0-96 43.072-96 96 0 37.547 22.229 71.851 56.597 87.403 1.429.64 2.923.939 4.395.939 4.053 0 7.936-2.347 9.728-6.272 2.411-5.376.021-11.691-5.333-14.123-26.752-12.096-44.053-38.763-44.053-67.947 0-41.173 33.493-74.667 74.667-74.667 29.184 0 55.851 17.301 67.947 44.053 2.411 5.376 8.747 7.787 14.101 5.333 5.375-2.431 7.764-8.745 5.332-14.121z"/></svg>