<svg xmlns="http://www.w3.org/2000/svg" viewBox="0 0 512 512" style="enable-background:new 0 0 512 512" xml:space="preserve"><path style="fill:none;stroke:currentColor;stroke-width:30;stroke-linecap:round;stroke-linejoin:round;stroke-miterlimit:10" d="M168.8 485.8 26.2 343.2a34 34 0 0 1 0-48.1L295 26.1a34 34 0 0 1 48 0l142.7 142.7a34 34 0 0 1 0 48.1L217 485.9a34 34 0 0 1-48 0zM124.7 354.8l32.8 32.8M196.9 427h0M85 315.1h0M278 46.3 465.7 234M140.7 39.4h0A148.4 148.4 0 0 0 15 165h0M86.9 15l53.8 24.4M113.8 88.6l26.9-49.2M371.3 472.6h0A148.4 148.4 0 0 0 497 347h0M425.1 497l-53.8-24.4M398.2 423.4l-26.9 49.2"/></svg>