<?xml version="1.0" encoding="utf-8"?><svg xmlns="http://www.w3.org/2000/svg" viewBox="0 0 511.8 511.8"><path d="M151.4 221.2L39.6 431.8l101.5-9.4 49.1 89.3L302 301.2l-150.6-80z" fill="#e95454"/><path d="M360.4 221.2l111.8 210.6-101.5-9.4-49.1 89.3-111.8-210.5 150.6-80z" fill="#ed6362"/><circle cx="255.9" cy="186.7" r="186.7" fill="#fdbc4b"/><path d="M255.9 320c-73.5 0-133.3-59.8-133.3-133.3S182.4 53.4 255.9 53.4s133.3 59.8 133.3 133.3S329.4 320 255.9 320z" fill="#ffdb70"/><path d="M246.3 255.4c-9.2 9.2-24.1 9.2-33.3 0l-51.6-51.6c-9.2-9.2-9.2-24.1 0-33.3 9.2-9.2 24.1-9.2 33.3 0l30.7 30.7c2.3 2.3 6.1 2.3 8.4 0L317 118c9.2-9.2 24.1-9.2 33.3 0 4.4 4.4 6.9 10.4 6.9 16.6s-2.5 12.2-6.9 16.6l-104 104.2z" fill="#ec9922"/></svg>