<?xml version="1.0" encoding="utf-8"?>
<!-- Generator: Adobe Illustrator 15.1.0, SVG Export Plug-In . SVG Version: 6.00 Build 0)  -->
<!DOCTYPE svg PUBLIC "-//W3C//DTD SVG 1.0//EN" "http://www.w3.org/TR/2001/REC-SVG-20010904/DTD/svg10.dtd">
<svg version="1.0" id="Layer_1" xmlns="http://www.w3.org/2000/svg" xmlns:xlink="http://www.w3.org/1999/xlink" x="0px" y="0px"
	 width="137px" height="112px" viewBox="212.14 345.445 137 112" enable-background="new 212.14 345.445 137 112"
	 xml:space="preserve">
<g>
	<path fill="#FFFFFF" d="M330.728,371.486l-0.059-0.092c-1.842-2.877-4.447-5.203-7.752-6.918c-3.23-1.668-7.063-2.515-11.389-2.515
		h-52.775c-6.015,0-11.155,1.08-15.313,3.229c-8.414,4.424-13.723,14.559-16.234,31.004c-0.675,4.545-1.017,8.629-1.017,12.137
		c0,7.66,1.468,13.942,4.363,18.671l0.057,0.094c1.842,2.877,4.448,5.201,7.753,6.918c3.231,1.668,7.063,2.514,11.388,2.514h26.652
		h26.125c6.014,0,11.154-1.08,15.313-3.23c8.414-4.424,13.723-14.558,16.234-31.003c0.674-4.545,1.018-8.629,1.018-12.139
		C335.091,382.497,333.623,376.215,330.728,371.486z"/>
	<path fill="#512E83" d="M326.207,373.545c-1.342-2.094-3.246-3.782-5.723-5.065c-2.479-1.279-5.461-1.924-8.955-1.924h-26.652
		c0,0-0.037,0-0.093,0.002v-0.002h-26.652c-3.495,0-6.687,0.645-9.581,1.924c-2.892,1.283-5.329,2.686-7.35,4.781
		c-0.783,0.834-1.323,1.629-2.038,2.592l-0.334,0.535c-1.34,2.532-2.46,5.284-3.363,8.258c-0.903,2.969-1.792,6.77-2.667,11.401
		c-0.872,4.63-1.309,9.103-1.309,13.412c0,7.107,1.486,12.643,4.455,16.604c1.34,1.689,3.015,2.939,5.024,3.754
		c2.012,0.818,4.252,1.225,6.73,1.225c2.475,0,5.024-0.35,7.644-1.047c2.155-0.523,4.252-1.838,6.293-3.932l3.231,4.455h9.872h0.35
		h27.437c5.184,0,9.467-0.875,12.846-2.621c6.756-3.551,11.242-12.582,13.457-27.087c0.641-4.31,0.959-8.097,0.959-11.359
		C329.789,382.75,328.595,377.45,326.207,373.545z M314.587,398.711c-1.049,6.523-2.535,11.392-4.459,14.595
		c-1.92,3.205-4.572,4.805-7.951,4.805h-11.185l3.259-20.687h-31.204c-0.049,0.011-0.099,0.021-0.148,0.029
		c-0.3,0.062-0.593,0.123-0.878,0.189c-0.124,0.028-0.245,0.061-0.366,0.09c-0.251,0.063-0.498,0.127-0.735,0.192
		c-0.175,0.052-0.343,0.104-0.511,0.156c-0.175,0.056-0.354,0.109-0.521,0.166c-0.337,0.117-0.662,0.236-0.967,0.365l-1.397,9.002
		h6.901l-1.041,5.865c-0.235,0.348-0.495,0.639-0.786,0.871c-0.302,0.256-0.606,0.491-0.914,0.719
		c-0.112,0.084-0.225,0.16-0.337,0.238c-0.192,0.135-0.385,0.264-0.579,0.387c-0.144,0.092-0.288,0.182-0.433,0.268
		c-0.156,0.093-0.313,0.177-0.47,0.261c-0.171,0.094-0.342,0.188-0.515,0.271c-0.058,0.027-0.116,0.051-0.174,0.078
		c-0.488,0.229-0.981,0.424-1.48,0.586c-0.027,0.008-0.053,0.018-0.08,0.025c-0.26,0.084-0.522,0.153-0.786,0.219
		c-0.042,0.01-0.086,0.021-0.129,0.031c-0.272,0.063-0.546,0.118-0.821,0.161l-2.197,0.515h-1.216c-3.378,0-5.51-1.601-6.39-4.805
		c-0.882-3.203-0.787-8.07,0.284-14.595c0.912-4.774,1.741-8.313,2.49-10.617c0.747-2.301,1.677-4.135,2.794-5.504
		c0.721-0.887,1.47-1.592,2.248-2.125l0,0h0.001c0.191-0.133,0.384-0.25,0.579-0.358c0.038-0.021,0.075-0.043,0.112-0.063
		c0.2-0.106,0.399-0.209,0.602-0.295c1.247-0.521,2.715-0.785,4.404-0.785h4.947h5.627h27.03h6.074h4.5
		c1.689,0,3.072,0.265,4.15,0.785c1.078,0.527,1.951,1.473,2.619,2.842c0.674,1.369,1.008,3.203,1.008,5.504
		C315.546,390.398,315.226,393.937,314.587,398.711z"/>
	<path fill="#40A5B0" d="M311.529,366.556c3.494,0,6.479,0.645,8.955,1.924c2.477,1.283,4.381,2.973,5.723,5.065
		c2.389,3.904,3.582,9.205,3.582,15.904c0,3.264-0.318,7.051-0.959,11.359c-2.215,14.506-6.701,23.537-13.457,27.088
		c-3.379,1.746-7.662,2.621-12.846,2.621H274.74l10.136-63.963L311.529,366.556L311.529,366.556z M302.177,418.111
		c3.379,0,6.031-1.6,7.951-4.805c1.924-3.203,3.41-8.07,4.459-14.595c0.639-4.774,0.959-8.313,0.959-10.616
		c0-2.302-0.334-4.136-1.006-5.505c-0.668-1.368-1.543-2.313-2.621-2.842c-1.076-0.521-2.459-0.785-4.148-0.785h-10.575
		l-6.204,39.146L302.177,418.111L302.177,418.111z"/>
	<path fill="#FFFFFF" d="M314.541,382.59c-0.668-1.368-1.543-2.313-2.621-2.842c-1.076-0.521-2.459-0.785-4.148-0.785h-4.502h-6.073
		h-27.03h-5.627h-4.947c-1.689,0-3.157,0.265-4.404,0.785c-0.203,0.086-0.402,0.188-0.602,0.295
		c-0.038,0.021-0.075,0.041-0.112,0.063c-0.194,0.108-0.387,0.227-0.579,0.358h-0.001l0,0c-0.778,0.533-1.527,1.238-2.248,2.125
		c-1.117,1.369-2.047,3.203-2.794,5.505c-0.749,2.303-1.578,5.842-2.49,10.616c-1.071,6.523-1.166,11.392-0.284,14.595
		c0.879,3.205,3.012,4.805,6.39,4.805h1.216l2.197-0.514c2.365-0.38,4.605-1.455,6.718-3.244c0.292-0.232,0.551-0.523,0.786-0.871
		l1.041-5.865h-6.901l1.397-9.002c1.143-0.479,2.519-0.875,4.112-1.188h31.219l-3.259,20.686h11.185c3.379,0,6.031-1.6,7.951-4.805
		c1.924-3.203,3.41-8.07,4.459-14.595c0.639-4.774,0.959-8.313,0.959-10.616C315.546,385.793,315.212,383.959,314.541,382.59z"/>
	<path fill="#512E83" d="M309.33,386.904c-0.244,1.729-1.842,3.131-3.57,3.131s-2.934-1.402-2.689-3.131
		c0.242-1.729,1.842-3.129,3.568-3.129C308.367,383.775,309.572,385.174,309.33,386.904z"/>
	<polygon fill="#512E83" points="279.985,397.424 274.74,420.754 278.996,420.754 281.513,397.424 	"/>
	<polygon fill="#FFFFFF" points="281.927,394.564 281.513,397.424 278.52,418.111 292.61,418.111 296.284,394.652 	"/>
	<polygon fill="#40A5B0" points="295.571,440.928 285.719,424.184 295.571,407.443 279.971,407.702 268.034,424.184 
		279.751,440.879 	"/>
	<polygon fill="#512E83" points="298.496,396.208 293.351,396.208 294.072,391.062 299.218,391.062 	"/>
	<polygon fill="#FFFFFF" points="280.014,372.697 275.532,378.963 287.428,378.963 291.75,373.129 287.62,366.368 276.491,366.368 	
		"/>
</g>
</svg>
