<svg fill="none" height="48" viewBox="0 0 578.88 273.16" width="48" xmlns="http://www.w3.org/2000/svg">
<path fill="#002b50" d="M541 85.8c21 0 38-17.4 38-38.7 0-20.4-17.4-37.7-38-37.7S503.5 26.6 503.5 47c0 21.4 17 38.8 37.7 38.8z"/>
<path fill="#002b50" d="M504 99.3v110.5L470 136c15.4-19.3 21.7-46.4 22.4-66V54h-60.2v15.5c-1 19.6-7.3 28.8-24.8 34.5V0H346v44.4c-22-22.8-53-34.8-89.3-34.8-40 0-73 13.8-95.6 40a118 118 0 00-17 26.2C129 60.6 108.4 54 84 54H0v219.2h56V221h28c24.4 0 45-8.3 60-23.7a116.3 116.3 0 0017.6 27c22.7 25.8 55.5 39.3 95 39.3 38.6 0 71-13.5 93.6-39l4.5-5.6h52.7v-54.3l8-2 26 56.4h136.8V99.4h-74zm-418 64H56v-53h29.2c7.6 0 20.3 5.2 20.3 25.5 0 13-5.4 27.3-19.4 27.3zm170 60c-47.3 0-85.7-39.4-85.7-87.8C170.3 89 209.5 50 256 50s85.6 39 85.6 85.5c0 48.4-38.4 87.8-85.6 87.8z"/>
<path fill="#009cff" d="M256 142c-38 0-57 6.5-65 8.6 6.7 30.5 33.2 53.3 65 53.3s58.3-23 65-53.4c-8-2-27.2-8.7-65-8.7z"/>
</svg>